<mxfile host="app.diagrams.net" modified="2021-05-15T04:24:51.870Z" agent="5.0 (Windows NT 10.0; Win64; x64) AppleWebKit/537.36 (KHTML, like Gecko) Chrome/90.0.4430.212 Safari/537.36" etag="WVflow_MpWe2PQ7bzONN" version="14.6.13" type="github">
  <diagram id="pO5_XWkYkROmKtC1aZqD" name="Page-1">
    <mxGraphModel dx="981" dy="548" grid="0" gridSize="10" guides="1" tooltips="1" connect="1" arrows="1" fold="1" page="1" pageScale="1" pageWidth="850" pageHeight="1100" math="0" shadow="0">
      <root>
        <mxCell id="0" />
        <mxCell id="1" parent="0" />
        <mxCell id="FBNqGNpVWFzunrc3NTBm-1" value="Developer" style="shape=umlActor;verticalLabelPosition=bottom;verticalAlign=top;html=1;" vertex="1" parent="1">
          <mxGeometry x="90" y="357.5" width="30" height="60" as="geometry" />
        </mxCell>
        <mxCell id="FBNqGNpVWFzunrc3NTBm-23" value="" style="edgeStyle=orthogonalEdgeStyle;curved=1;orthogonalLoop=1;jettySize=auto;html=1;strokeColor=#000000;endArrow=none;endFill=0;startArrow=block;startFill=0;" edge="1" parent="1" source="FBNqGNpVWFzunrc3NTBm-18" target="FBNqGNpVWFzunrc3NTBm-22">
          <mxGeometry relative="1" as="geometry" />
        </mxCell>
        <mxCell id="FBNqGNpVWFzunrc3NTBm-25" value="" style="edgeStyle=orthogonalEdgeStyle;curved=1;orthogonalLoop=1;jettySize=auto;html=1;strokeColor=#000000;startArrow=block;startFill=0;endArrow=none;endFill=0;" edge="1" parent="1" source="FBNqGNpVWFzunrc3NTBm-18" target="FBNqGNpVWFzunrc3NTBm-24">
          <mxGeometry relative="1" as="geometry" />
        </mxCell>
        <mxCell id="FBNqGNpVWFzunrc3NTBm-18" value="单测活动导入" style="ellipse;whiteSpace=wrap;html=1;" vertex="1" parent="1">
          <mxGeometry x="160" y="357.5" width="120" height="60" as="geometry" />
        </mxCell>
        <mxCell id="FBNqGNpVWFzunrc3NTBm-29" value="" style="edgeStyle=orthogonalEdgeStyle;curved=1;orthogonalLoop=1;jettySize=auto;html=1;startArrow=none;startFill=0;endArrow=classic;endFill=1;strokeColor=#000000;dashed=1;" edge="1" parent="1" source="FBNqGNpVWFzunrc3NTBm-22" target="FBNqGNpVWFzunrc3NTBm-28">
          <mxGeometry relative="1" as="geometry">
            <Array as="points">
              <mxPoint x="410" y="220" />
            </Array>
          </mxGeometry>
        </mxCell>
        <mxCell id="FBNqGNpVWFzunrc3NTBm-30" value="&amp;lt;&amp;lt;包含&amp;gt;&amp;gt;" style="edgeLabel;html=1;align=center;verticalAlign=middle;resizable=0;points=[];" vertex="1" connectable="0" parent="FBNqGNpVWFzunrc3NTBm-29">
          <mxGeometry x="0.225" relative="1" as="geometry">
            <mxPoint x="1" as="offset" />
          </mxGeometry>
        </mxCell>
        <mxCell id="FBNqGNpVWFzunrc3NTBm-32" value="" style="edgeStyle=orthogonalEdgeStyle;curved=1;orthogonalLoop=1;jettySize=auto;html=1;dashed=1;startArrow=none;startFill=0;endArrow=classic;endFill=1;strokeColor=#000000;" edge="1" parent="1" source="FBNqGNpVWFzunrc3NTBm-22" target="FBNqGNpVWFzunrc3NTBm-31">
          <mxGeometry relative="1" as="geometry">
            <Array as="points">
              <mxPoint x="490" y="280" />
              <mxPoint x="490" y="280" />
            </Array>
          </mxGeometry>
        </mxCell>
        <mxCell id="FBNqGNpVWFzunrc3NTBm-35" value="&amp;lt;&amp;lt;包含&amp;gt;&amp;gt;" style="edgeLabel;html=1;align=center;verticalAlign=middle;resizable=0;points=[];" vertex="1" connectable="0" parent="FBNqGNpVWFzunrc3NTBm-32">
          <mxGeometry x="-0.1993" relative="1" as="geometry">
            <mxPoint as="offset" />
          </mxGeometry>
        </mxCell>
        <mxCell id="FBNqGNpVWFzunrc3NTBm-34" value="" style="edgeStyle=orthogonalEdgeStyle;curved=1;orthogonalLoop=1;jettySize=auto;html=1;dashed=1;startArrow=none;startFill=0;endArrow=classic;endFill=1;strokeColor=#000000;" edge="1" parent="1" source="FBNqGNpVWFzunrc3NTBm-22" target="FBNqGNpVWFzunrc3NTBm-33">
          <mxGeometry relative="1" as="geometry">
            <Array as="points">
              <mxPoint x="440" y="340" />
            </Array>
          </mxGeometry>
        </mxCell>
        <mxCell id="FBNqGNpVWFzunrc3NTBm-36" value="&amp;lt;&amp;lt;包含&amp;gt;&amp;gt;" style="edgeLabel;html=1;align=center;verticalAlign=middle;resizable=0;points=[];" vertex="1" connectable="0" parent="FBNqGNpVWFzunrc3NTBm-34">
          <mxGeometry x="0.0479" y="5" relative="1" as="geometry">
            <mxPoint x="9" as="offset" />
          </mxGeometry>
        </mxCell>
        <mxCell id="FBNqGNpVWFzunrc3NTBm-22" value="首次导入" style="ellipse;whiteSpace=wrap;html=1;" vertex="1" parent="1">
          <mxGeometry x="320" y="250" width="120" height="60" as="geometry" />
        </mxCell>
        <mxCell id="FBNqGNpVWFzunrc3NTBm-38" value="" style="edgeStyle=orthogonalEdgeStyle;curved=1;orthogonalLoop=1;jettySize=auto;html=1;dashed=1;startArrow=none;startFill=0;endArrow=classic;endFill=1;strokeColor=#000000;exitX=0.923;exitY=0.234;exitDx=0;exitDy=0;exitPerimeter=0;" edge="1" parent="1" source="FBNqGNpVWFzunrc3NTBm-24" target="FBNqGNpVWFzunrc3NTBm-37">
          <mxGeometry relative="1" as="geometry">
            <Array as="points">
              <mxPoint x="421" y="495" />
            </Array>
          </mxGeometry>
        </mxCell>
        <mxCell id="FBNqGNpVWFzunrc3NTBm-46" value="&amp;lt;&amp;lt;包含&amp;gt;&amp;gt;" style="edgeLabel;html=1;align=center;verticalAlign=middle;resizable=0;points=[];" vertex="1" connectable="0" parent="FBNqGNpVWFzunrc3NTBm-38">
          <mxGeometry x="0.0125" y="-2" relative="1" as="geometry">
            <mxPoint as="offset" />
          </mxGeometry>
        </mxCell>
        <mxCell id="FBNqGNpVWFzunrc3NTBm-40" value="" style="edgeStyle=orthogonalEdgeStyle;curved=1;orthogonalLoop=1;jettySize=auto;html=1;dashed=1;startArrow=none;startFill=0;endArrow=classic;endFill=1;strokeColor=#000000;exitX=0.946;exitY=0.775;exitDx=0;exitDy=0;exitPerimeter=0;" edge="1" parent="1" source="FBNqGNpVWFzunrc3NTBm-24" target="FBNqGNpVWFzunrc3NTBm-39">
          <mxGeometry relative="1" as="geometry">
            <Array as="points">
              <mxPoint x="423" y="565" />
            </Array>
          </mxGeometry>
        </mxCell>
        <mxCell id="FBNqGNpVWFzunrc3NTBm-47" value="&amp;lt;&amp;lt;包含&amp;gt;&amp;gt;" style="edgeLabel;html=1;align=center;verticalAlign=middle;resizable=0;points=[];" vertex="1" connectable="0" parent="FBNqGNpVWFzunrc3NTBm-40">
          <mxGeometry x="-0.0719" y="1" relative="1" as="geometry">
            <mxPoint x="7" y="-1" as="offset" />
          </mxGeometry>
        </mxCell>
        <mxCell id="FBNqGNpVWFzunrc3NTBm-42" value="" style="edgeStyle=orthogonalEdgeStyle;curved=1;orthogonalLoop=1;jettySize=auto;html=1;dashed=1;startArrow=none;startFill=0;endArrow=classic;endFill=1;strokeColor=#000000;" edge="1" parent="1" source="FBNqGNpVWFzunrc3NTBm-24" target="FBNqGNpVWFzunrc3NTBm-41">
          <mxGeometry relative="1" as="geometry">
            <Array as="points">
              <mxPoint x="410" y="560" />
            </Array>
          </mxGeometry>
        </mxCell>
        <mxCell id="FBNqGNpVWFzunrc3NTBm-48" value="&amp;lt;&amp;lt;包含&amp;gt;&amp;gt;" style="edgeLabel;html=1;align=center;verticalAlign=middle;resizable=0;points=[];" vertex="1" connectable="0" parent="FBNqGNpVWFzunrc3NTBm-42">
          <mxGeometry x="0.2739" y="10" relative="1" as="geometry">
            <mxPoint x="14" y="7" as="offset" />
          </mxGeometry>
        </mxCell>
        <mxCell id="FBNqGNpVWFzunrc3NTBm-44" value="" style="edgeStyle=orthogonalEdgeStyle;curved=1;orthogonalLoop=1;jettySize=auto;html=1;dashed=1;startArrow=none;startFill=0;endArrow=classic;endFill=1;strokeColor=#000000;exitX=1;exitY=0;exitDx=0;exitDy=0;" edge="1" parent="1" source="FBNqGNpVWFzunrc3NTBm-24" target="FBNqGNpVWFzunrc3NTBm-43">
          <mxGeometry relative="1" as="geometry">
            <Array as="points">
              <mxPoint x="413" y="435" />
            </Array>
          </mxGeometry>
        </mxCell>
        <mxCell id="FBNqGNpVWFzunrc3NTBm-45" value="&amp;lt;&amp;lt;包含&amp;gt;&amp;gt;" style="edgeLabel;html=1;align=center;verticalAlign=middle;resizable=0;points=[];" vertex="1" connectable="0" parent="FBNqGNpVWFzunrc3NTBm-44">
          <mxGeometry x="0.2629" y="-8" relative="1" as="geometry">
            <mxPoint x="14" y="-6" as="offset" />
          </mxGeometry>
        </mxCell>
        <mxCell id="FBNqGNpVWFzunrc3NTBm-24" value="流水线执行" style="ellipse;whiteSpace=wrap;html=1;" vertex="1" parent="1">
          <mxGeometry x="310" y="500" width="120" height="60" as="geometry" />
        </mxCell>
        <mxCell id="FBNqGNpVWFzunrc3NTBm-28" value="框架选型" style="ellipse;whiteSpace=wrap;html=1;" vertex="1" parent="1">
          <mxGeometry x="540" y="180" width="120" height="60" as="geometry" />
        </mxCell>
        <mxCell id="FBNqGNpVWFzunrc3NTBm-31" value="导入依赖" style="ellipse;whiteSpace=wrap;html=1;" vertex="1" parent="1">
          <mxGeometry x="540" y="250" width="120" height="60" as="geometry" />
        </mxCell>
        <mxCell id="FBNqGNpVWFzunrc3NTBm-33" value="编译集成" style="ellipse;whiteSpace=wrap;html=1;" vertex="1" parent="1">
          <mxGeometry x="540" y="317.5" width="120" height="60" as="geometry" />
        </mxCell>
        <mxCell id="FBNqGNpVWFzunrc3NTBm-37" value="前置插件设置" style="ellipse;whiteSpace=wrap;html=1;" vertex="1" parent="1">
          <mxGeometry x="540" y="465" width="120" height="60" as="geometry" />
        </mxCell>
        <mxCell id="FBNqGNpVWFzunrc3NTBm-39" value="数据收集" style="ellipse;whiteSpace=wrap;html=1;" vertex="1" parent="1">
          <mxGeometry x="540" y="535" width="120" height="60" as="geometry" />
        </mxCell>
        <mxCell id="FBNqGNpVWFzunrc3NTBm-41" value="后置插件设置" style="ellipse;whiteSpace=wrap;html=1;" vertex="1" parent="1">
          <mxGeometry x="540" y="605" width="120" height="60" as="geometry" />
        </mxCell>
        <mxCell id="FBNqGNpVWFzunrc3NTBm-43" value="编译打开覆盖率" style="ellipse;whiteSpace=wrap;html=1;" vertex="1" parent="1">
          <mxGeometry x="540" y="396" width="120" height="60" as="geometry" />
        </mxCell>
      </root>
    </mxGraphModel>
  </diagram>
</mxfile>
